# xmcd
# 
# Track frame offsets:
#	150
#	13986
#	31032
#	47505
#	62123
#	78593
#	96516
#	112145
#	125117
#	140924
#	157584
#	173150
#
# Disc length: 2605 seconds
#
# Revision: 1
# Processed by: cddbd v1.4PL0 Copyright (c) Steve Scherf et al.
# Submitted via: Audio-CD-Archiv 2.10.446
#
DISCID=a50a2b0c
DTITLE=Dixie Chicks - Wide Open Spaces
DYEAR=1900
DGENRE=country
TTITLE0=I Can Love You Better
TTITLE1=Wide Open Spaces
TTITLE2=Loving Arms
TTITLE3=There´s Your Trouble
TTITLE4=You Were Mine
TTITLE5=Never Say Die
TTITLE6=Tonight the Heartache´s on Me
TTITLE7=Ler Ér Rip
TTITLE8=Once You´ve Loved Somebody
TTITLE9=I´ll Take Care Of You
TTITLE10=Am I The Only One
TTITLE11=Give It Up Or Let Me Go
EXTD=
EXTT0=
EXTT1=
EXTT2=
EXTT3=
EXTT4=
EXTT5=
EXTT6=
EXTT7=
EXTT8=
EXTT9=
EXTT10=
EXTT11=
PLAYORDER=
